<svg width="389" height="220" viewBox="0 0 389 220" fill="none" xmlns="http://www.w3.org/2000/svg">
<path d="M23.04 132H12.96V38.4H34.704C42.192 38.4 47.856 40.176 51.696 43.728C55.632 47.28 57.6 52.224 57.6 58.56V83.04C57.6 89.472 55.68 94.464 51.84 98.016C48 101.472 42.288 103.2 34.704 103.2H23.04V132ZM47.52 83.04V58.56C47.52 54.912 46.416 52.08 44.208 50.064C42 48.048 38.832 47.04 34.704 47.04H23.04V94.56H34.704C43.248 94.56 47.52 90.72 47.52 83.04ZM77.7544 132H67.6744V38.4H89.4184C96.9064 38.4 102.57 40.176 106.41 43.728C110.346 47.28 112.314 52.224 112.314 58.56V78.72C112.314 88.512 108.09 94.752 99.6424 97.44L117.354 132H106.266L89.4184 98.88H77.7544V132ZM102.234 78.72V58.56C102.234 54.912 101.13 52.08 98.9224 50.064C96.7144 48.048 93.5464 47.04 89.4184 47.04H77.7544V90.24H89.4184C97.9624 90.24 102.234 86.4 102.234 78.72ZM171.405 56.4V114C171.405 120.432 169.341 125.424 165.213 128.976C161.181 132.432 155.085 134.16 146.925 134.16C138.861 134.16 132.765 132.432 128.637 128.976C124.509 125.424 122.445 120.432 122.445 114V56.4C122.445 49.968 124.461 45.024 128.493 41.568C132.621 38.016 138.717 36.24 146.781 36.24C154.941 36.24 161.085 38.016 165.213 41.568C169.341 45.024 171.405 49.968 171.405 56.4ZM161.325 114V56.4C161.325 48.72 156.525 44.88 146.925 44.88C137.325 44.88 132.525 48.72 132.525 56.4V114C132.525 121.68 137.325 125.52 146.925 125.52C156.525 125.52 161.325 121.68 161.325 114ZM222.491 38.4V47.04H203.771V132H193.691V47.04H174.971V38.4H222.491ZM270.681 132H228.201V38.4H269.241V47.04H238.281V80.16H263.481V88.8H238.281V123.36H270.681V132ZM298.518 93.12V84.48H324.726V132H320.406L316.662 122.784C314.646 126.24 312.006 129.024 308.742 131.136C305.478 133.152 301.926 134.16 298.086 134.16C284.166 134.16 277.206 127.44 277.206 114V56.4C277.206 49.968 279.174 45.024 283.11 41.568C287.046 38.016 292.95 36.24 300.822 36.24C308.694 36.24 314.646 38.016 318.678 41.568C322.71 45.024 324.726 49.968 324.726 56.4V64.32H314.646V56.4C314.646 48.72 310.086 44.88 300.966 44.88C291.846 44.88 287.286 48.72 287.286 56.4V114C287.286 117.648 288.054 120.48 289.59 122.496C291.126 124.512 293.91 125.52 297.942 125.52C302.07 125.52 305.862 123.888 309.318 120.624C312.87 117.36 314.646 114.192 314.646 111.12V93.12H298.518ZM380.886 132H338.406V38.4H379.446V47.04H348.486V80.16H373.686V88.8H348.486V123.36H380.886V132ZM373.11 17.808L367.638 23.28L351.366 31.488L347.622 27.744L365.334 10.032L373.11 17.808Z" fill="#333333"/>
<path d="M32.2 169.464V195C32.2 200.973 28.5947 203.96 21.384 203.96C14.1733 203.96 10.568 200.973 10.568 195V190.84H15.048V195.256C15.048 198.499 17.16 200.12 21.384 200.12C25.608 200.12 27.72 198.499 27.72 195.256V183.8C26.312 185.293 23.9867 186.04 20.744 186.04C17.544 186.04 15.0267 185.272 13.192 183.736C11.3573 182.157 10.44 179.939 10.44 177.08V169.4C10.44 166.541 11.336 164.344 13.128 162.808C14.9627 161.229 17.672 160.44 21.256 160.44C24.8827 160.44 27.6133 161.229 29.448 162.808C31.2827 164.344 32.2 166.541 32.2 169.4L32.136 169.464H32.2ZM27.72 177.08V169.4C27.72 165.987 25.5867 164.28 21.32 164.28C17.0533 164.28 14.92 165.987 14.92 169.4V177.08C14.92 180.493 17.0533 182.2 21.32 182.2C25.5867 182.2 27.72 180.493 27.72 177.08ZM48.825 203H43.065V195.96H48.825V203ZM81.45 169.4V195C81.45 197.859 80.5327 200.077 78.698 201.656C76.906 203.192 74.1967 203.96 70.57 203.96C66.986 203.96 64.2767 203.192 62.442 201.656C60.6073 200.077 59.69 197.859 59.69 195V169.4C59.69 166.541 60.586 164.344 62.378 162.808C64.2127 161.229 66.922 160.44 70.506 160.44C74.1327 160.44 76.8633 161.229 78.698 162.808C80.5327 164.344 81.45 166.541 81.45 169.4ZM76.97 195V169.4C76.97 165.987 74.8367 164.28 70.57 164.28C66.3033 164.28 64.17 165.987 64.17 169.4V195C64.17 198.413 66.3033 200.12 70.57 200.12C74.8367 200.12 76.97 198.413 76.97 195Z" fill="#AAAAAA"/>
<path d="M127.504 195V188.92C127.504 185.421 129.04 183.181 132.112 182.2C129.04 181.304 127.504 179.064 127.504 175.48V169.4C127.504 163.427 130.939 160.44 137.808 160.44C141.392 160.44 144.059 161.229 145.808 162.808C147.6 164.344 148.496 166.541 148.496 169.4V175.48C148.496 178.979 147.067 181.197 144.208 182.136C147.493 183.032 149.136 185.293 149.136 188.92V195C149.136 200.973 145.531 203.96 138.32 203.96C131.109 203.96 127.504 200.973 127.504 195ZM138.96 183.8H137.68C135.888 183.8 134.48 184.312 133.456 185.336C132.475 186.36 131.984 187.555 131.984 188.92V195.256C131.984 196.792 132.517 197.987 133.584 198.84C134.651 199.693 136.229 200.12 138.32 200.12C140.411 200.12 141.989 199.693 143.056 198.84C144.123 197.987 144.656 196.792 144.656 195.256V188.92C144.656 187.555 144.144 186.36 143.12 185.336C142.139 184.312 140.752 183.8 138.96 183.8ZM131.984 169.144V175.48C131.984 176.888 132.475 178.104 133.456 179.128C134.48 180.109 135.888 180.6 137.68 180.6H138.32C140.112 180.6 141.499 180.109 142.48 179.128C143.504 178.104 144.016 176.888 144.016 175.48V169.144C144.016 167.608 143.504 166.413 142.48 165.56C141.499 164.707 140.005 164.28 138 164.28C135.995 164.28 134.48 164.707 133.456 165.56C132.475 166.413 131.984 167.608 131.984 169.144ZM165.825 203H160.065V195.96H165.825V203ZM198.45 169.4V195C198.45 197.859 197.533 200.077 195.698 201.656C193.906 203.192 191.197 203.96 187.57 203.96C183.986 203.96 181.277 203.192 179.442 201.656C177.607 200.077 176.69 197.859 176.69 195V169.4C176.69 166.541 177.586 164.344 179.378 162.808C181.213 161.229 183.922 160.44 187.506 160.44C191.133 160.44 193.863 161.229 195.698 162.808C197.533 164.344 198.45 166.541 198.45 169.4ZM193.97 195V169.4C193.97 165.987 191.837 164.28 187.57 164.28C183.303 164.28 181.17 165.987 181.17 169.4V195C181.17 198.413 183.303 200.12 187.57 200.12C191.837 200.12 193.97 198.413 193.97 195Z" fill="#AAAAAA"/>
<path d="M97.52 198.5V195.26C97.52 192.692 98.384 191.084 100.112 190.436C98.864 188.492 98.24 186.98 98.24 185.9V184.1C98.24 182.492 98.732 181.256 99.716 180.392C100.724 179.504 102.236 179.06 104.252 179.06C108.116 179.06 110.048 180.74 110.048 184.1V187.16H107.528V183.956C107.528 183.092 107.24 182.42 106.664 181.94C106.112 181.46 105.272 181.22 104.144 181.22C103.016 181.22 102.164 181.46 101.588 181.94C101.036 182.42 100.76 183.092 100.76 183.956V185.9C100.76 186.764 101.42 188.144 102.74 190.04H112.604V192.2H109.688V198.5C109.688 201.86 107.66 203.54 103.604 203.54C99.548 203.54 97.52 201.86 97.52 198.5ZM107.168 198.644V192.2H102.524C100.868 192.2 100.04 193.22 100.04 195.26V198.644C100.04 199.508 100.34 200.18 100.94 200.66C101.54 201.14 102.428 201.38 103.604 201.38C104.78 201.38 105.668 201.14 106.268 200.66C106.868 200.18 107.168 199.508 107.168 198.644Z" fill="#AAAAAA"/>
<rect x="220" y="161" width="160" height="42" fill="#FFDC00"/>
<path d="M228.728 174.072V188.496C228.728 188.832 228.56 189 228.224 189H226.184C225.848 189 225.68 188.832 225.68 188.496V174.072C225.68 173.736 225.848 173.568 226.184 173.568H228.224C228.56 173.568 228.728 173.736 228.728 174.072ZM234.262 189H232.222C231.886 189 231.718 188.832 231.718 188.496V177.264C231.718 176.928 231.886 176.76 232.222 176.76H234.262C234.598 176.76 234.766 176.928 234.766 177.264V178.056H234.862C235.214 177.192 235.998 176.76 237.214 176.76H237.982C240.494 176.76 241.75 178.064 241.75 180.672V188.496C241.75 188.832 241.574 189 241.222 189H239.206C238.87 189 238.702 188.832 238.702 188.496V180.816C238.702 180.304 238.59 179.944 238.366 179.736C238.158 179.512 237.798 179.4 237.286 179.4H236.422C235.318 179.4 234.766 180.008 234.766 181.224V188.496C234.766 188.832 234.598 189 234.262 189ZM248.913 189H244.353C244.033 189 243.873 188.832 243.873 188.496V186.96C243.873 186.784 243.905 186.664 243.969 186.6C244.033 186.52 244.161 186.48 244.353 186.48H248.361C249.145 186.48 249.537 186.24 249.537 185.76V185.64C249.537 185.256 249.209 184.888 248.553 184.536L246.177 183.216C245.361 182.8 244.761 182.352 244.377 181.872C243.993 181.392 243.801 180.776 243.801 180.024C243.801 178.904 244.097 178.08 244.689 177.552C245.281 177.024 246.209 176.76 247.473 176.76H251.481C251.801 176.76 251.961 176.928 251.961 177.264V178.824C251.961 179 251.929 179.128 251.865 179.208C251.801 179.272 251.673 179.304 251.481 179.304H248.145C247.361 179.304 246.969 179.504 246.969 179.904V180.024C246.969 180.376 247.313 180.736 248.001 181.104L250.425 182.544C251.257 182.992 251.841 183.456 252.177 183.936C252.513 184.4 252.681 185.016 252.681 185.784C252.681 187.928 251.425 189 248.913 189ZM255.068 179.4H254.108C253.916 179.4 253.78 179.368 253.7 179.304C253.636 179.24 253.604 179.112 253.604 178.92V177.264C253.604 176.928 253.772 176.76 254.108 176.76H255.068C255.244 176.76 255.332 176.672 255.332 176.496V174.216C255.332 173.88 255.508 173.712 255.86 173.712H257.876C258.212 173.712 258.38 173.88 258.38 174.216V176.496C258.38 176.672 258.476 176.76 258.668 176.76H260.54C260.876 176.76 261.044 176.928 261.044 177.264V178.92C261.044 179.096 261.004 179.224 260.924 179.304C260.86 179.368 260.732 179.4 260.54 179.4H258.668C258.476 179.4 258.38 179.488 258.38 179.664V184.968C258.38 185.464 258.492 185.824 258.716 186.048C258.94 186.256 259.308 186.36 259.82 186.36H260.78C261.116 186.36 261.284 186.528 261.284 186.864V188.52C261.284 188.696 261.244 188.824 261.164 188.904C261.1 188.968 260.972 189 260.78 189H259.316C258.052 189 257.068 188.664 256.364 187.992C255.676 187.32 255.332 186.36 255.332 185.112V179.664C255.332 179.488 255.244 179.4 255.068 179.4ZM265.809 189H263.769C263.433 189 263.265 188.832 263.265 188.496V177.264C263.265 176.928 263.433 176.76 263.769 176.76H265.809C266.145 176.76 266.313 176.928 266.313 177.264V178.08H266.409C266.585 177.648 266.897 177.32 267.345 177.096C267.793 176.872 268.265 176.76 268.761 176.76H269.625C269.945 176.76 270.105 176.928 270.105 177.264V178.92C270.105 179.112 270.065 179.248 269.985 179.328C269.921 179.392 269.801 179.416 269.625 179.4H267.969C266.865 179.4 266.313 180.024 266.313 181.272V188.496C266.313 188.832 266.145 189 265.809 189ZM276.049 189H275.257C274.025 189 273.089 188.664 272.449 187.992C271.825 187.32 271.513 186.352 271.513 185.088V177.264C271.513 176.928 271.681 176.76 272.017 176.76H274.057C274.393 176.76 274.561 176.928 274.561 177.264V184.944C274.561 185.456 274.665 185.824 274.873 186.048C275.097 186.256 275.457 186.36 275.953 186.36H276.841C277.945 186.36 278.497 185.752 278.497 184.536V177.264C278.497 176.928 278.665 176.76 279.001 176.76H281.017C281.369 176.76 281.545 176.928 281.545 177.264V188.496C281.545 188.832 281.369 189 281.017 189H279.001C278.665 189 278.497 188.832 278.497 188.496V187.704H278.401C278.225 188.136 277.913 188.464 277.465 188.688C277.017 188.896 276.545 189 276.049 189ZM291.995 186.864V188.52C291.995 188.696 291.955 188.824 291.875 188.904C291.811 188.968 291.683 189 291.491 189H287.915C286.651 189 285.675 188.664 284.987 187.992C284.299 187.32 283.955 186.352 283.955 185.088V180.672C283.955 179.408 284.299 178.44 284.987 177.768C285.675 177.096 286.651 176.76 287.915 176.76H291.491C291.827 176.76 291.995 176.928 291.995 177.264V178.92C291.995 179.096 291.955 179.224 291.875 179.304C291.811 179.368 291.683 179.4 291.491 179.4H288.395C287.899 179.4 287.539 179.512 287.315 179.736C287.107 179.944 287.003 180.304 287.003 180.816V184.944C287.003 185.456 287.107 185.824 287.315 186.048C287.539 186.256 287.899 186.36 288.395 186.36H291.491C291.827 186.36 291.995 186.528 291.995 186.864ZM294.326 179.4H293.366C293.174 179.4 293.038 179.368 292.958 179.304C292.894 179.24 292.862 179.112 292.862 178.92V177.264C292.862 176.928 293.03 176.76 293.366 176.76H294.326C294.502 176.76 294.59 176.672 294.59 176.496V174.216C294.59 173.88 294.766 173.712 295.118 173.712H297.134C297.47 173.712 297.638 173.88 297.638 174.216V176.496C297.638 176.672 297.734 176.76 297.926 176.76H299.798C300.134 176.76 300.302 176.928 300.302 177.264V178.92C300.302 179.096 300.262 179.224 300.182 179.304C300.118 179.368 299.99 179.4 299.798 179.4H297.926C297.734 179.4 297.638 179.488 297.638 179.664V184.968C297.638 185.464 297.75 185.824 297.974 186.048C298.198 186.256 298.566 186.36 299.078 186.36H300.038C300.374 186.36 300.542 186.528 300.542 186.864V188.52C300.542 188.696 300.502 188.824 300.422 188.904C300.358 188.968 300.23 189 300.038 189H298.574C297.31 189 296.326 188.664 295.622 187.992C294.934 187.32 294.59 186.36 294.59 185.112V179.664C294.59 179.488 294.502 179.4 294.326 179.4ZM302.643 174.696V172.608C302.643 172.288 302.803 172.128 303.123 172.128H305.211C305.531 172.128 305.691 172.28 305.691 172.584V174.696C305.691 175.016 305.531 175.176 305.211 175.176H303.123C302.803 175.176 302.643 175.016 302.643 174.696ZM302.643 188.496V177.264C302.643 176.928 302.803 176.76 303.123 176.76H305.187C305.523 176.76 305.691 176.928 305.691 177.264V188.496C305.691 188.704 305.651 188.84 305.571 188.904C305.507 188.968 305.387 189 305.211 189H303.147C302.811 189 302.643 188.832 302.643 188.496ZM314.309 189H312.173C310.909 189 309.933 188.664 309.245 187.992C308.557 187.32 308.213 186.352 308.213 185.088V180.672C308.213 179.408 308.557 178.44 309.245 177.768C309.933 177.096 310.909 176.76 312.173 176.76H314.309C315.557 176.76 316.525 177.104 317.213 177.792C317.917 178.464 318.269 179.424 318.269 180.672V185.088C318.269 186.336 317.917 187.304 317.213 187.992C316.525 188.664 315.557 189 314.309 189ZM312.629 186.384H313.853C314.365 186.384 314.725 186.28 314.933 186.072C315.157 185.864 315.269 185.504 315.269 184.992V180.768C315.269 180.256 315.157 179.896 314.933 179.688C314.725 179.48 314.365 179.376 313.853 179.376H312.629C312.117 179.376 311.757 179.48 311.549 179.688C311.341 179.896 311.237 180.256 311.237 180.768V184.992C311.237 185.504 311.341 185.864 311.549 186.072C311.757 186.28 312.117 186.384 312.629 186.384ZM323.208 189H321.168C320.832 189 320.664 188.832 320.664 188.496V177.264C320.664 176.928 320.832 176.76 321.168 176.76H323.208C323.544 176.76 323.712 176.928 323.712 177.264V178.056H323.808C324.16 177.192 324.944 176.76 326.16 176.76H326.928C329.44 176.76 330.696 178.064 330.696 180.672V188.496C330.696 188.832 330.52 189 330.168 189H328.152C327.816 189 327.648 188.832 327.648 188.496V180.816C327.648 180.304 327.536 179.944 327.312 179.736C327.104 179.512 326.744 179.4 326.232 179.4H325.368C324.264 179.4 323.712 180.008 323.712 181.224V188.496C323.712 188.832 323.544 189 323.208 189ZM337.858 189H333.298C332.978 189 332.818 188.832 332.818 188.496V186.96C332.818 186.784 332.85 186.664 332.914 186.6C332.978 186.52 333.106 186.48 333.298 186.48H337.306C338.09 186.48 338.482 186.24 338.482 185.76V185.64C338.482 185.256 338.154 184.888 337.498 184.536L335.122 183.216C334.306 182.8 333.706 182.352 333.322 181.872C332.938 181.392 332.746 180.776 332.746 180.024C332.746 178.904 333.042 178.08 333.634 177.552C334.226 177.024 335.154 176.76 336.418 176.76H340.426C340.746 176.76 340.906 176.928 340.906 177.264V178.824C340.906 179 340.874 179.128 340.81 179.208C340.746 179.272 340.618 179.304 340.426 179.304H337.09C336.306 179.304 335.914 179.504 335.914 179.904V180.024C335.914 180.376 336.258 180.736 336.946 181.104L339.37 182.544C340.202 182.992 340.786 183.456 341.122 183.936C341.458 184.4 341.626 185.016 341.626 185.784C341.626 187.928 340.37 189 337.858 189Z" fill="#111111"/>
</svg>
